<svg viewBox="0 0 200 200" xmlns="http://www.w3.org/2000/svg">
  <defs>
    <radialGradient id="rh-hw" cx="38%" cy="32%" r="65%">
      <stop offset="0%" stop-color="white" stop-opacity="0.45"/>
      <stop offset="100%" stop-color="black" stop-opacity="0.12"/>
    </radialGradient>
  </defs>

  <!-- 날개 왼쪽 -->
  <ellipse cx="50" cy="145" rx="32" ry="20" fill="#8B4A10" transform="rotate(-25,50,145)"/>
  <ellipse cx="50" cy="145" rx="32" ry="20" fill="url(#rh-hw)" opacity="0.5" transform="rotate(-25,50,145)"/>
  <!-- 날개 오른쪽 -->
  <ellipse cx="150" cy="145" rx="32" ry="20" fill="#8B4A10" transform="rotate(25,150,145)"/>
  <ellipse cx="150" cy="145" rx="32" ry="20" fill="url(#rh-hw)" opacity="0.5" transform="rotate(25,150,145)"/>
  <!-- 날개 끝 주황 -->
  <ellipse cx="32" cy="158" rx="14" ry="9" fill="#F05A28" transform="rotate(-25,32,158)"/>
  <ellipse cx="168" cy="158" rx="14" ry="9" fill="#F05A28" transform="rotate(25,168,158)"/>

  <!-- 다리 -->
  <ellipse cx="82" cy="186" rx="15" ry="10" fill="#F5A825"/>
  <ellipse cx="118" cy="186" rx="15" ry="10" fill="#F5A825"/>
  <ellipse cx="82" cy="186" rx="15" ry="10" fill="url(#rh-hw)" opacity="0.4"/>
  <ellipse cx="118" cy="186" rx="15" ry="10" fill="url(#rh-hw)" opacity="0.4"/>

  <!-- 몸통 -->
  <ellipse cx="100" cy="150" rx="44" ry="38" fill="#C07028"/>
  <ellipse cx="100" cy="150" rx="44" ry="38" fill="url(#rh-hw)"/>
  <!-- 가슴 흰색 -->
  <ellipse cx="100" cy="156" rx="26" ry="24" fill="#FFF8F0" opacity="0.65"/>

  <!-- 한화 유니폼 -->
  <path d="M80 138 Q100 133 120 138 L118 168 Q100 172 82 168Z" fill="#F05A28" opacity="0.85"/>
  <path d="M90 133 L88 168 Q100 171 112 168 L110 133 Q105 130 100 129 Q95 130 90 133Z" fill="white" opacity="0.85"/>
  <text x="100" y="155" text-anchor="middle" font-family="Arial Black,Arial" font-weight="900" font-size="8" fill="#F05A28">EAGLES</text>

  <!-- 머리 (흰머리 독수리) -->
  <circle cx="100" cy="88" r="48" fill="white"/>
  <circle cx="100" cy="88" r="48" fill="url(#rh-hw)"/>
  <!-- 머리 아래 갈색 부분 -->
  <ellipse cx="100" cy="116" rx="32" ry="14" fill="#C07028"/>

  <!-- 눈 테두리 노랑 -->
  <circle cx="83" cy="86" r="14" fill="#F5A825"/>
  <circle cx="117" cy="86" r="14" fill="#F5A825"/>
  <!-- 눈 -->
  <circle cx="83" cy="86" r="11" fill="#1A1A1A"/>
  <circle cx="117" cy="86" r="11" fill="#1A1A1A"/>
  <circle cx="79.5" cy="82.5" r="4" fill="white" opacity="0.85"/>
  <circle cx="113.5" cy="82.5" r="4" fill="white" opacity="0.85"/>

  <!-- 눈썹 (날카롭게) -->
  <path d="M72 76 Q83 71 94 75" stroke="#1A1A1A" stroke-width="3" fill="none" stroke-linecap="round"/>
  <path d="M106 75 Q117 71 128 76" stroke="#1A1A1A" stroke-width="3" fill="none" stroke-linecap="round"/>

  <!-- 부리 -->
  <path d="M86 100 L100 98 L114 100 L108 112 Q100 118 92 112Z" fill="#F5A825"/>
  <line x1="86" y1="100" x2="114" y2="100" stroke="#D4880A" stroke-width="1.5"/>

  <!-- 볼 -->
  <circle cx="72" cy="96" r="8" fill="#FF9966" opacity="0.35"/>
  <circle cx="128" cy="96" r="8" fill="#FF9966" opacity="0.35"/>

  <!-- 머리 깃털 장식 -->
  <path d="M100 40 Q94 26 97 16 Q100 28 103 16 Q106 26 100 40Z" fill="white"/>
</svg>
