<svg viewBox="0 0 200 200" xmlns="http://www.w3.org/2000/svg">
  <defs>
    <radialGradient id="rh-kw" cx="38%" cy="32%" r="65%">
      <stop offset="0%" stop-color="white" stop-opacity="0.45"/>
      <stop offset="100%" stop-color="black" stop-opacity="0.12"/>
    </radialGradient>
  </defs>

  <!-- 망토 (뒤) -->
  <path d="M60 134 Q42 162 38 195 L162 195 Q158 162 140 134 Q120 126 100 124 Q80 126 60 134Z" fill="#820024"/>
  <path d="M60 134 Q42 162 38 195 L100 195 L100 128 Q80 128 60 134Z" fill="#1A1F5C"/>
  <path d="M140 134 Q158 162 162 195 L100 195 L100 128 Q120 128 140 134Z" fill="#1A1F5C"/>
  <!-- 망토 별 장식 -->
  <text x="62" y="168" font-size="15" fill="#FFD700" text-anchor="middle" opacity="0.85">★</text>
  <text x="138" y="168" font-size="15" fill="#FFD700" text-anchor="middle" opacity="0.85">★</text>

  <!-- 다리 -->
  <ellipse cx="82" cy="186" rx="16" ry="11" fill="#1A1F5C"/>
  <ellipse cx="118" cy="186" rx="16" ry="11" fill="#1A1F5C"/>
  <ellipse cx="82" cy="186" rx="16" ry="11" fill="url(#rh-kw)" opacity="0.5"/>
  <ellipse cx="118" cy="186" rx="16" ry="11" fill="url(#rh-kw)" opacity="0.5"/>

  <!-- 팔 왼쪽 (주먹 앞으로) -->
  <ellipse cx="52" cy="148" rx="20" ry="15" fill="#1A1F5C" transform="rotate(-25,52,148)"/>
  <ellipse cx="52" cy="148" rx="20" ry="15" fill="url(#rh-kw)" opacity="0.5" transform="rotate(-25,52,148)"/>
  <circle cx="38" cy="156" r="14" fill="#F5C898"/>
  <circle cx="38" cy="156" r="14" fill="url(#rh-kw)" opacity="0.4"/>

  <!-- 팔 오른쪽 -->
  <ellipse cx="148" cy="148" rx="20" ry="15" fill="#1A1F5C" transform="rotate(25,148,148)"/>
  <ellipse cx="148" cy="148" rx="20" ry="15" fill="url(#rh-kw)" opacity="0.5" transform="rotate(25,148,148)"/>
  <circle cx="162" cy="156" r="14" fill="#F5C898"/>
  <circle cx="162" cy="156" r="14" fill="url(#rh-kw)" opacity="0.4"/>

  <!-- 몸통 -->
  <ellipse cx="100" cy="148" rx="42" ry="34" fill="#1A1F5C"/>
  <ellipse cx="100" cy="148" rx="42" ry="34" fill="url(#rh-kw)"/>
  <!-- 흉부 H 마크 -->
  <circle cx="100" cy="146" r="18" fill="#820024"/>
  <text x="100" y="152" text-anchor="middle" font-family="Arial Black,Arial" font-weight="900" font-size="16" fill="#FFD700">H</text>

  <!-- 벨트 -->
  <rect x="70" y="162" width="60" height="10" rx="5" fill="#820024"/>
  <rect x="91" y="159" width="18" height="16" rx="5" fill="#FFD700"/>
  <text x="100" y="170" text-anchor="middle" font-family="Arial Black,Arial" font-weight="900" font-size="8" fill="#820024">K</text>

  <!-- 목 -->
  <ellipse cx="100" cy="120" rx="20" ry="14" fill="#F5C898"/>
  <ellipse cx="100" cy="120" rx="20" ry="14" fill="url(#rh-kw)" opacity="0.3"/>

  <!-- 머리 -->
  <circle cx="100" cy="90" r="44" fill="#F5C898"/>
  <circle cx="100" cy="90" r="44" fill="url(#rh-kw)"/>

  <!-- 히어로 마스크 -->
  <path d="M56 84 Q65 68 78 72 Q88 76 92 88 L108 88 Q112 76 122 72 Q135 68 144 84 Q136 96 120 92 Q110 90 100 92 Q90 90 80 92 Q64 96 56 84Z" fill="#820024"/>
  <!-- 마스크 눈 구멍 -->
  <ellipse cx="81" cy="83" rx="9" ry="8" fill="white"/>
  <ellipse cx="119" cy="83" rx="9" ry="8" fill="white"/>

  <!-- 눈 -->
  <circle cx="81" cy="83" r="10" fill="#1A1A1A"/>
  <circle cx="119" cy="83" r="10" fill="#1A1A1A"/>
  <circle cx="77.5" cy="79.5" r="3.8" fill="white" opacity="0.85"/>
  <circle cx="115.5" cy="79.5" r="3.8" fill="white" opacity="0.85"/>

  <!-- 코 -->
  <circle cx="100" cy="98" r="4.5" fill="#E8A070"/>

  <!-- 입 (당당한 미소) -->
  <path d="M88 104 Q100 112 112 104" stroke="#C07050" stroke-width="2.2" fill="none" stroke-linecap="round"/>

  <!-- 볼 -->
  <circle cx="75" cy="100" r="9" fill="#FF9966" opacity="0.4"/>
  <circle cx="125" cy="100" r="9" fill="#FF9966" opacity="0.4"/>

  <!-- 이마 별 -->
  <text x="100" y="72" text-anchor="middle" font-size="13" fill="#FFD700">★</text>

  <!-- 망토 바람 효과 -->
  <path d="M38 185 Q44 174 52 180" stroke="#820024" stroke-width="2.5" fill="none" stroke-linecap="round" opacity="0.7"/>
  <path d="M162 185 Q156 174 148 180" stroke="#820024" stroke-width="2.5" fill="none" stroke-linecap="round" opacity="0.7"/>
</svg>
