<svg viewBox="0 0 200 200" xmlns="http://www.w3.org/2000/svg">
  <defs>
    <radialGradient id="rh-lg" cx="38%" cy="32%" r="65%">
      <stop offset="0%" stop-color="white" stop-opacity="0.45"/>
      <stop offset="100%" stop-color="black" stop-opacity="0.12"/>
    </radialGradient>
  </defs>

  <!-- ── 왼쪽 쌍둥이 ── -->
  <!-- 다리 -->
  <ellipse cx="46" cy="184" rx="12" ry="9" fill="#2B2B3B"/>
  <ellipse cx="66" cy="184" rx="12" ry="9" fill="#2B2B3B"/>
  <ellipse cx="46" cy="184" rx="12" ry="9" fill="url(#rh-lg)" opacity="0.5"/>
  <ellipse cx="66" cy="184" rx="12" ry="9" fill="url(#rh-lg)" opacity="0.5"/>
  <!-- 팔 -->
  <ellipse cx="28" cy="148" rx="12" ry="9" fill="#C8102E" transform="rotate(-25,28,148)"/>
  <ellipse cx="28" cy="148" rx="12" ry="9" fill="url(#rh-lg)" opacity="0.5" transform="rotate(-25,28,148)"/>
  <ellipse cx="82" cy="148" rx="12" ry="9" fill="#C8102E" transform="rotate(25,82,148)"/>
  <ellipse cx="82" cy="148" rx="12" ry="9" fill="url(#rh-lg)" opacity="0.5" transform="rotate(25,82,148)"/>
  <!-- 몸통 -->
  <ellipse cx="55" cy="155" rx="32" ry="28" fill="#C8102E"/>
  <ellipse cx="55" cy="155" rx="32" ry="28" fill="url(#rh-lg)"/>
  <!-- 배 -->
  <ellipse cx="55" cy="160" rx="18" ry="16" fill="white" opacity="0.55"/>
  <!-- 유니폼 번호 -->
  <text x="55" y="163" text-anchor="middle" font-family="Arial Black,Arial" font-weight="900" font-size="14" fill="white" opacity="0.9">2</text>
  <!-- 머리 -->
  <circle cx="55" cy="102" r="36" fill="#F5C898"/>
  <circle cx="55" cy="102" r="36" fill="url(#rh-lg)"/>
  <!-- LG 빨간 모자 -->
  <path d="M26 98 Q55 78 84 98 L82 90 Q55 70 28 90Z" fill="#C8102E"/>
  <rect x="24" y="89" width="62" height="10" rx="5" fill="#C8102E"/>
  <path d="M18 99 Q55 90 92 99 Q90 107 55 104 Q20 107 18 99Z" fill="#A00C24"/>
  <text x="55" y="97" text-anchor="middle" font-family="Arial Black,Arial" font-weight="900" font-size="9" fill="white">LG</text>
  <!-- 눈 -->
  <circle cx="46" cy="105" r="8" fill="#1A1A1A"/>
  <circle cx="64" cy="105" r="8" fill="#1A1A1A"/>
  <circle cx="43.5" cy="102.5" r="2.8" fill="white" opacity="0.85"/>
  <circle cx="61.5" cy="102.5" r="2.8" fill="white" opacity="0.85"/>
  <!-- 코 -->
  <circle cx="55" cy="114" r="3.5" fill="#E8A070"/>
  <!-- 입 -->
  <path d="M48 119 Q55 125 62 119" stroke="#C07050" stroke-width="1.8" fill="none" stroke-linecap="round"/>
  <!-- 볼 -->
  <circle cx="39" cy="112" r="7" fill="#FF9966" opacity="0.4"/>
  <circle cx="71" cy="112" r="7" fill="#FF9966" opacity="0.4"/>

  <!-- ── 오른쪽 쌍둥이 ── -->
  <!-- 다리 -->
  <ellipse cx="134" cy="184" rx="12" ry="9" fill="#2B2B3B"/>
  <ellipse cx="154" cy="184" rx="12" ry="9" fill="#2B2B3B"/>
  <ellipse cx="134" cy="184" rx="12" ry="9" fill="url(#rh-lg)" opacity="0.5"/>
  <ellipse cx="154" cy="184" rx="12" ry="9" fill="url(#rh-lg)" opacity="0.5"/>
  <!-- 팔 -->
  <ellipse cx="116" cy="148" rx="12" ry="9" fill="#C8102E" transform="rotate(-25,116,148)"/>
  <ellipse cx="116" cy="148" rx="12" ry="9" fill="url(#rh-lg)" opacity="0.5" transform="rotate(-25,116,148)"/>
  <ellipse cx="170" cy="148" rx="12" ry="9" fill="#C8102E" transform="rotate(25,170,148)"/>
  <ellipse cx="170" cy="148" rx="12" ry="9" fill="url(#rh-lg)" opacity="0.5" transform="rotate(25,170,148)"/>
  <!-- 몸통 -->
  <ellipse cx="145" cy="155" rx="32" ry="28" fill="#C8102E"/>
  <ellipse cx="145" cy="155" rx="32" ry="28" fill="url(#rh-lg)"/>
  <!-- 배 -->
  <ellipse cx="145" cy="160" rx="18" ry="16" fill="white" opacity="0.55"/>
  <!-- 유니폼 번호 -->
  <text x="145" y="163" text-anchor="middle" font-family="Arial Black,Arial" font-weight="900" font-size="14" fill="white" opacity="0.9">2</text>
  <!-- 머리 -->
  <circle cx="145" cy="102" r="36" fill="#F5C898"/>
  <circle cx="145" cy="102" r="36" fill="url(#rh-lg)"/>
  <!-- LG 빨간 모자 -->
  <path d="M116 98 Q145 78 174 98 L172 90 Q145 70 118 90Z" fill="#C8102E"/>
  <rect x="114" y="89" width="62" height="10" rx="5" fill="#C8102E"/>
  <path d="M108 99 Q145 90 182 99 Q180 107 145 104 Q110 107 108 99Z" fill="#A00C24"/>
  <text x="145" y="97" text-anchor="middle" font-family="Arial Black,Arial" font-weight="900" font-size="9" fill="white">LG</text>
  <!-- 눈 -->
  <circle cx="136" cy="105" r="8" fill="#1A1A1A"/>
  <circle cx="154" cy="105" r="8" fill="#1A1A1A"/>
  <circle cx="133.5" cy="102.5" r="2.8" fill="white" opacity="0.85"/>
  <circle cx="151.5" cy="102.5" r="2.8" fill="white" opacity="0.85"/>
  <!-- 코 -->
  <circle cx="145" cy="114" r="3.5" fill="#E8A070"/>
  <!-- 입 -->
  <path d="M138 119 Q145 125 152 119" stroke="#C07050" stroke-width="1.8" fill="none" stroke-linecap="round"/>
  <!-- 볼 -->
  <circle cx="129" cy="112" r="7" fill="#FF9966" opacity="0.4"/>
  <circle cx="161" cy="112" r="7" fill="#FF9966" opacity="0.4"/>
</svg>
