<svg viewBox="0 0 200 200" xmlns="http://www.w3.org/2000/svg">
  <defs>
    <radialGradient id="rh-nc" cx="38%" cy="32%" r="65%">
      <stop offset="0%" stop-color="white" stop-opacity="0.45"/>
      <stop offset="100%" stop-color="black" stop-opacity="0.12"/>
    </radialGradient>
  </defs>

  <!-- 꼬리 -->
  <path d="M138 158 Q166 148 172 128 Q168 118 160 122 Q164 134 150 144 Q144 150 138 157Z" fill="#1A5FA0"/>
  <path d="M138 158 Q166 148 172 128" fill="none" stroke="#68B0D4" stroke-width="3" stroke-linecap="round" opacity="0.5"/>

  <!-- 다리 -->
  <ellipse cx="80" cy="186" rx="19" ry="13" fill="#1A5FA0"/>
  <ellipse cx="120" cy="186" rx="19" ry="13" fill="#1A5FA0"/>
  <ellipse cx="80" cy="186" rx="19" ry="13" fill="url(#rh-nc)" opacity="0.6"/>
  <ellipse cx="120" cy="186" rx="19" ry="13" fill="url(#rh-nc)" opacity="0.6"/>

  <!-- 작은 팔 (T렉스) -->
  <ellipse cx="60" cy="148" rx="16" ry="11" fill="#1A5FA0" transform="rotate(-30,60,148)"/>
  <ellipse cx="60" cy="148" rx="16" ry="11" fill="url(#rh-nc)" opacity="0.5" transform="rotate(-30,60,148)"/>
  <ellipse cx="46" cy="157" rx="10" ry="8" fill="#1A5FA0" transform="rotate(-10,46,157)"/>

  <!-- 몸통 -->
  <ellipse cx="100" cy="152" rx="46" ry="40" fill="#1A5FA0"/>
  <ellipse cx="100" cy="152" rx="46" ry="40" fill="url(#rh-nc)"/>
  <!-- 배 밝은 색 -->
  <ellipse cx="100" cy="158" rx="28" ry="25" fill="#68B0D4" opacity="0.45"/>

  <!-- 등 돌기 -->
  <ellipse cx="76" cy="118" rx="8" ry="12" fill="#0D4A80" transform="rotate(-15,76,118)"/>
  <ellipse cx="92" cy="112" rx="9" ry="14" fill="#0D4A80" transform="rotate(-8,92,112)"/>
  <ellipse cx="109" cy="111" rx="9" ry="14" fill="#0D4A80" transform="rotate(8,109,111)"/>
  <ellipse cx="125" cy="116" rx="8" ry="12" fill="#0D4A80" transform="rotate(15,125,116)"/>

  <!-- NC 유니폼 -->
  <path d="M80 138 Q100 133 120 138 L118 168 Q100 172 82 168Z" fill="#003087" opacity="0.85"/>
  <text x="100" y="157" text-anchor="middle" font-family="Arial Black,Arial" font-weight="900" font-size="12" fill="#68B0D4">NC</text>

  <!-- 머리 -->
  <ellipse cx="100" cy="88" rx="48" ry="42" fill="#1A5FA0"/>
  <ellipse cx="100" cy="88" rx="48" ry="42" fill="url(#rh-nc)"/>

  <!-- 주둥이 -->
  <path d="M64 96 Q100 106 136 96 L132 114 Q100 122 68 114Z" fill="#1A5FA0"/>
  <path d="M68 98 Q100 106 132 98 L129 112 Q100 119 71 112Z" fill="#68B0D4" opacity="0.35"/>

  <!-- 이빨 -->
  <rect x="83" y="102" width="7" height="10" rx="3.5" fill="white"/>
  <rect x="96" y="102" width="8" height="12" rx="4" fill="white"/>
  <rect x="110" y="102" width="7" height="10" rx="3.5" fill="white"/>

  <!-- 혀 -->
  <ellipse cx="100" cy="114" rx="11" ry="6" fill="#E84070"/>

  <!-- 코 (콧구멍) -->
  <ellipse cx="88" cy="93" rx="5" ry="4" fill="#0D4A80" opacity="0.6"/>
  <ellipse cx="112" cy="93" rx="5" ry="4" fill="#0D4A80" opacity="0.6"/>

  <!-- 눈 (크고 귀엽게) -->
  <circle cx="80" cy="74" r="17" fill="white"/>
  <circle cx="120" cy="74" r="17" fill="white"/>
  <circle cx="82" cy="76" r="12" fill="#003087"/>
  <circle cx="122" cy="76" r="12" fill="#003087"/>
  <circle cx="83" cy="76" r="8" fill="#1A1A1A"/>
  <circle cx="123" cy="76" r="8" fill="#1A1A1A"/>
  <circle cx="80" cy="73" r="3.5" fill="white" opacity="0.85"/>
  <circle cx="120" cy="73" r="3.5" fill="white" opacity="0.85"/>

  <!-- 볼 -->
  <circle cx="66" cy="88" r="9" fill="#88CCEE" opacity="0.5"/>
  <circle cx="134" cy="88" r="9" fill="#88CCEE" opacity="0.5"/>
</svg>
